<svg width="100%" height="100%" viewBox="0 0 529 379" fill="none" xmlns="http://www.w3.org/2000/svg">
    <g opacity="0.4">
        <path d="M511.863 58.4356L38.4629 58.4355" stroke="url(#paint0_linear)" stroke-width="0.739687"/>
        <path d="M511.863 114.651L38.4629 114.651" stroke="url(#paint1_linear)" stroke-width="0.739687"/>
        <path d="M511.863 170.868L38.4629 170.868" stroke="url(#paint2_linear)" stroke-width="0.739687"/>
        <path d="M511.863 227.084L38.4629 227.084" stroke="url(#paint3_linear)" stroke-width="0.739687"/>
        <path d="M511.863 283.3L38.4629 283.3" stroke="url(#paint4_linear)" stroke-width="0.739687"/>
        <path d="M511.863 339.517L38.4629 339.517" stroke="url(#paint5_linear)" stroke-width="0.739687"/>
    </g>
    <g clip-path="url(#clip0)">
        <path d="M6.76109 55.6047C6.76109 56.2114 6.58989 56.7077 6.24749 57.0934C5.90943 57.4792 5.42835 57.7371 4.80424 57.8671V57.9191C5.56704 58.0144 6.13264 58.2571 6.50104 58.6472C6.86944 59.0373 7.05364 59.5487 7.05364 60.1815C7.05364 61.0873 6.73942 61.7851 6.11097 62.2749C5.48252 62.7603 4.5897 63.003 3.43249 63.003C2.92974 63.003 2.46816 62.964 2.04775 62.886C1.63167 62.8123 1.22643 62.6801 0.832031 62.4894V61.4622C1.24377 61.6659 1.68152 61.8219 2.14526 61.9303C2.61335 62.0343 3.05543 62.0863 3.4715 62.0863C5.11413 62.0863 5.93544 61.4427 5.93544 60.1555C5.93544 59.0026 5.02961 58.4262 3.21796 58.4262H2.28179V57.4965H3.23096C3.97209 57.4965 4.55936 57.334 4.99277 57.0089C5.42618 56.6795 5.64289 56.2245 5.64289 55.6437C5.64289 55.1799 5.48252 54.8159 5.1618 54.5515C4.84541 54.2871 4.41417 54.1549 3.86807 54.1549C3.452 54.1549 3.05976 54.2113 2.69136 54.3239C2.32296 54.4366 1.90255 54.6447 1.43014 54.9481L0.88404 54.2199C1.27411 53.9122 1.72269 53.6717 2.22978 53.4983C2.7412 53.3206 3.27863 53.2318 3.84207 53.2318C4.76523 53.2318 5.48252 53.4441 5.99395 53.8689C6.50537 54.2893 6.76109 54.8679 6.76109 55.6047Z" fill="black"/>
        <path d="M11.6463 57.0674C12.6475 57.0674 13.4342 57.3166 14.0063 57.8151C14.5827 58.3092 14.8709 58.9874 14.8709 59.8499C14.8709 60.8338 14.5567 61.6052 13.9282 62.1643C13.3041 62.7234 12.4417 63.003 11.3408 63.003C10.2703 63.003 9.45329 62.8318 8.88985 62.4894V61.4492C9.19324 61.6442 9.57031 61.7981 10.0211 61.9108C10.4718 62.0191 10.916 62.0733 11.3538 62.0733C12.1166 62.0733 12.7082 61.8935 13.1286 61.5337C13.5533 61.174 13.7657 60.6539 13.7657 59.9735C13.7657 58.6472 12.9531 57.9841 11.3278 57.9841C10.916 57.9841 10.3656 58.0469 9.67649 58.1726L9.11739 57.8151L9.47496 53.3683H14.2013V54.363H10.3981L10.1576 57.217C10.656 57.1173 11.1523 57.0674 11.6463 57.0674Z" fill="black"/>
        <path d="M22.7792 58.1076C22.7792 59.7502 22.5192 60.9768 21.9991 61.7873C21.4833 62.5978 20.6923 63.003 19.6262 63.003C18.6033 63.003 17.8253 62.5891 17.2922 61.7613C16.7591 60.9291 16.4926 59.7112 16.4926 58.1076C16.4926 56.452 16.7505 55.2233 17.2662 54.4215C17.782 53.6197 18.5686 53.2188 19.6262 53.2188C20.6577 53.2188 21.44 53.637 21.9731 54.4735C22.5105 55.31 22.7792 56.5213 22.7792 58.1076ZM17.5848 58.1076C17.5848 59.4902 17.7473 60.4979 18.0724 61.1307C18.3974 61.7591 18.9154 62.0733 19.6262 62.0733C20.3456 62.0733 20.8657 61.7548 21.1864 61.1177C21.5115 60.4762 21.674 59.4729 21.674 58.1076C21.674 56.7424 21.5115 55.7434 21.1864 55.1106C20.8657 54.4735 20.3456 54.1549 19.6262 54.1549C18.9154 54.1549 18.3974 54.4691 18.0724 55.0976C17.7473 55.7217 17.5848 56.725 17.5848 58.1076Z" fill="black"/>
        <g opacity="0.85">
            <path d="M6.76109 111.821C6.76109 112.428 6.58989 112.925 6.24749 113.31C5.90943 113.696 5.42835 113.954 4.80424 114.084V114.136C5.56704 114.231 6.13264 114.474 6.50104 114.864C6.86944 115.254 7.05364 115.766 7.05364 116.398C7.05364 117.304 6.73942 118.002 6.11097 118.492C5.48252 118.977 4.5897 119.22 3.43249 119.22C2.92974 119.22 2.46816 119.181 2.04775 119.103C1.63167 119.029 1.22643 118.897 0.832031 118.706V117.679C1.24377 117.883 1.68152 118.039 2.14526 118.147C2.61335 118.251 3.05543 118.303 3.4715 118.303C5.11413 118.303 5.93544 117.66 5.93544 116.372C5.93544 115.219 5.02961 114.643 3.21796 114.643H2.28179V113.713H3.23096C3.97209 113.713 4.55936 113.551 4.99277 113.226C5.42618 112.896 5.64289 112.441 5.64289 111.86C5.64289 111.397 5.48252 111.033 5.1618 110.768C4.84541 110.504 4.41417 110.372 3.86807 110.372C3.452 110.372 3.05976 110.428 2.69136 110.541C2.32296 110.653 1.90255 110.861 1.43014 111.165L0.88404 110.437C1.27411 110.129 1.72269 109.888 2.22978 109.715C2.7412 109.537 3.27863 109.449 3.84207 109.449C4.76523 109.449 5.48252 109.661 5.99395 110.086C6.50537 110.506 6.76109 111.085 6.76109 111.821Z" fill="black"/>
            <path d="M14.9749 114.324C14.9749 115.967 14.7149 117.194 14.1948 118.004C13.679 118.815 12.8881 119.22 11.8219 119.22C10.799 119.22 10.0211 118.806 9.48796 117.978C8.95486 117.146 8.68832 115.928 8.68832 114.324C8.68832 112.669 8.9462 111.44 9.46196 110.638C9.97771 109.836 10.7644 109.436 11.8219 109.436C12.8534 109.436 13.6357 109.854 14.1688 110.69C14.7062 111.527 14.9749 112.738 14.9749 114.324ZM9.78051 114.324C9.78051 115.707 9.94304 116.715 10.2681 117.347C10.5932 117.976 11.1111 118.29 11.8219 118.29C12.5413 118.29 13.0614 117.972 13.3822 117.334C13.7072 116.693 13.8697 115.69 13.8697 114.324C13.8697 112.959 13.7072 111.96 13.3822 111.327C13.0614 110.69 12.5413 110.372 11.8219 110.372C11.1111 110.372 10.5932 110.686 10.2681 111.314C9.94304 111.938 9.78051 112.942 9.78051 114.324Z" fill="black"/>
            <path d="M22.7792 114.324C22.7792 115.967 22.5192 117.194 21.9991 118.004C21.4833 118.815 20.6923 119.22 19.6262 119.22C18.6033 119.22 17.8253 118.806 17.2922 117.978C16.7591 117.146 16.4926 115.928 16.4926 114.324C16.4926 112.669 16.7505 111.44 17.2662 110.638C17.782 109.836 18.5686 109.436 19.6262 109.436C20.6577 109.436 21.44 109.854 21.9731 110.69C22.5105 111.527 22.7792 112.738 22.7792 114.324ZM17.5848 114.324C17.5848 115.707 17.7473 116.715 18.0724 117.347C18.3974 117.976 18.9154 118.29 19.6262 118.29C20.3456 118.29 20.8657 117.972 21.1864 117.334C21.5115 116.693 21.674 115.69 21.674 114.324C21.674 112.959 21.5115 111.96 21.1864 111.327C20.8657 110.69 20.3456 110.372 19.6262 110.372C18.9154 110.372 18.3974 110.686 18.0724 111.314C17.7473 111.938 17.5848 112.942 17.5848 114.324Z" fill="black"/>
        </g>
        <g opacity="0.7">
            <path d="M7.1187 175.306H0.871094V174.376L3.37404 171.86C4.13684 171.089 4.6396 170.538 4.88231 170.209C5.12502 169.879 5.30705 169.559 5.4284 169.247C5.54976 168.934 5.61044 168.599 5.61044 168.239C5.61044 167.732 5.45658 167.331 5.14885 167.036C4.84113 166.737 4.41422 166.588 3.86813 166.588C3.47372 166.588 3.09882 166.653 2.74343 166.783C2.39236 166.913 2.00013 167.149 1.56672 167.491L0.994616 166.757C1.8701 166.028 2.82361 165.664 3.85512 165.664C4.74795 165.664 5.44791 165.894 5.955 166.353C6.46209 166.809 6.71563 167.422 6.71563 168.193C6.71563 168.796 6.5466 169.392 6.20854 169.981C5.87048 170.571 5.2377 171.316 4.31021 172.218L2.22984 174.252V174.304H7.1187V175.306Z" fill="black"/>
            <path d="M11.6464 169.5C12.6476 169.5 13.4342 169.749 14.0063 170.248C14.5828 170.742 14.871 171.42 14.871 172.283C14.871 173.266 14.5567 174.038 13.9283 174.597C13.3042 175.156 12.4417 175.436 11.3408 175.436C10.2703 175.436 9.45334 175.264 8.88991 174.922V173.882C9.1933 174.077 9.57036 174.231 10.0211 174.343C10.4719 174.452 10.9161 174.506 11.3538 174.506C12.1166 174.506 12.7083 174.326 13.1287 173.966C13.5534 173.607 13.7658 173.087 13.7658 172.406C13.7658 171.08 12.9531 170.417 11.3278 170.417C10.9161 170.417 10.3657 170.48 9.67655 170.605L9.11745 170.248L9.47501 165.801H14.2014V166.796H10.3982L10.1576 169.65C10.6561 169.55 11.1523 169.5 11.6464 169.5Z" fill="black"/>
            <path d="M22.7793 170.54C22.7793 172.183 22.5192 173.409 21.9991 174.22C21.4834 175.03 20.6924 175.436 19.6262 175.436C18.6034 175.436 17.8254 175.022 17.2923 174.194C16.7592 173.362 16.4926 172.144 16.4926 170.54C16.4926 168.885 16.7505 167.656 17.2663 166.854C17.782 166.052 18.5687 165.651 19.6262 165.651C20.6577 165.651 21.44 166.07 21.9731 166.906C22.5106 167.743 22.7793 168.954 22.7793 170.54ZM17.5848 170.54C17.5848 171.923 17.7474 172.93 18.0724 173.563C18.3975 174.192 18.9154 174.506 19.6262 174.506C20.3457 174.506 20.8658 174.187 21.1865 173.55C21.5115 172.909 21.6741 171.905 21.6741 170.54C21.6741 169.175 21.5115 168.176 21.1865 167.543C20.8658 166.906 20.3457 166.588 19.6262 166.588C18.9154 166.588 18.3975 166.902 18.0724 167.53C17.7474 168.154 17.5848 169.158 17.5848 170.54Z" fill="black"/>
        </g>
        <g opacity="0.55">
            <path d="M7.1187 231.522H0.871094V230.593L3.37404 228.077C4.13684 227.305 4.6396 226.755 4.88231 226.425C5.12502 226.096 5.30705 225.775 5.4284 225.463C5.54976 225.151 5.61044 224.815 5.61044 224.456C5.61044 223.949 5.45658 223.548 5.14885 223.253C4.84113 222.954 4.41422 222.804 3.86813 222.804C3.47372 222.804 3.09882 222.869 2.74343 222.999C2.39236 223.129 2.00013 223.366 1.56672 223.708L0.994616 222.973C1.8701 222.245 2.82361 221.881 3.85512 221.881C4.74795 221.881 5.44791 222.111 5.955 222.57C6.46209 223.025 6.71563 223.639 6.71563 224.41C6.71563 225.013 6.5466 225.608 6.20854 226.198C5.87048 226.787 5.2377 227.533 4.31021 228.434L2.22984 230.469V230.521H7.1187V231.522Z" fill="black"/>
            <path d="M14.975 226.757C14.975 228.4 14.7149 229.626 14.1949 230.437C13.6791 231.247 12.8881 231.652 11.8219 231.652C10.7991 231.652 10.0211 231.238 9.48802 230.411C8.95492 229.579 8.68837 228.361 8.68837 226.757C8.68837 225.101 8.94625 223.873 9.46201 223.071C9.97777 222.269 10.7644 221.868 11.8219 221.868C12.8534 221.868 13.6358 222.286 14.1688 223.123C14.7063 223.959 14.975 225.171 14.975 226.757ZM9.78057 226.757C9.78057 228.14 9.9431 229.147 10.2682 229.78C10.5932 230.409 11.1111 230.723 11.8219 230.723C12.5414 230.723 13.0615 230.404 13.3822 229.767C13.7073 229.126 13.8698 228.122 13.8698 226.757C13.8698 225.392 13.7073 224.393 13.3822 223.76C13.0615 223.123 12.5414 222.804 11.8219 222.804C11.1111 222.804 10.5932 223.119 10.2682 223.747C9.9431 224.371 9.78057 225.374 9.78057 226.757Z" fill="black"/>
            <path d="M22.7793 226.757C22.7793 228.4 22.5192 229.626 21.9991 230.437C21.4834 231.247 20.6924 231.652 19.6262 231.652C18.6034 231.652 17.8254 231.238 17.2923 230.411C16.7592 229.579 16.4926 228.361 16.4926 226.757C16.4926 225.101 16.7505 223.873 17.2663 223.071C17.782 222.269 18.5687 221.868 19.6262 221.868C20.6577 221.868 21.44 222.286 21.9731 223.123C22.5106 223.959 22.7793 225.171 22.7793 226.757ZM17.5848 226.757C17.5848 228.14 17.7474 229.147 18.0724 229.78C18.3975 230.409 18.9154 230.723 19.6262 230.723C20.3457 230.723 20.8658 230.404 21.1865 229.767C21.5115 229.126 21.6741 228.122 21.6741 226.757C21.6741 225.392 21.5115 224.393 21.1865 223.76C20.8658 223.123 20.3457 222.804 19.6262 222.804C18.9154 222.804 18.3975 223.119 18.0724 223.747C17.7474 224.371 17.5848 225.374 17.5848 226.757Z" fill="black"/>
        </g>
        <g opacity="0.4">
            <path d="M4.86947 287.738H3.81628V280.964C3.81628 280.401 3.83362 279.867 3.86829 279.365C3.77727 279.456 3.67542 279.551 3.56274 279.651C3.45005 279.75 2.93429 280.173 2.01546 280.918L1.44336 280.177L3.95931 278.234H4.86947V287.738Z" fill="black"/>
            <path d="M11.6466 281.933C12.6477 281.933 13.4344 282.182 14.0065 282.68C14.5829 283.174 14.8711 283.853 14.8711 284.715C14.8711 285.699 14.5569 286.47 13.9285 287.03C13.3044 287.589 12.4419 287.868 11.341 287.868C10.2705 287.868 9.45351 287.697 8.89007 287.355V286.314C9.19346 286.509 9.57053 286.663 10.0213 286.776C10.472 286.884 10.9163 286.939 11.354 286.939C12.1168 286.939 12.7084 286.759 13.1288 286.399C13.5536 286.039 13.7659 285.519 13.7659 284.839C13.7659 283.512 12.9533 282.849 11.328 282.849C10.9163 282.849 10.3658 282.912 9.67671 283.038L9.11761 282.68L9.47518 278.234H14.2015V279.228H10.3983L10.1578 282.082C10.6562 281.983 11.1525 281.933 11.6466 281.933Z" fill="black"/>
            <path d="M22.7794 282.973C22.7794 284.615 22.5194 285.842 21.9993 286.653C21.4835 287.463 20.6926 287.868 19.6264 287.868C18.6035 287.868 17.8256 287.454 17.2925 286.627C16.7594 285.794 16.4928 284.576 16.4928 282.973C16.4928 281.317 16.7507 280.089 17.2665 279.287C17.7822 278.485 18.5688 278.084 19.6264 278.084C20.6579 278.084 21.4402 278.502 21.9733 279.339C22.5107 280.175 22.7794 281.387 22.7794 282.973ZM17.585 282.973C17.585 284.355 17.7475 285.363 18.0726 285.996C18.3977 286.624 18.9156 286.939 19.6264 286.939C20.3458 286.939 20.8659 286.62 21.1866 285.983C21.5117 285.341 21.6742 284.338 21.6742 282.973C21.6742 281.608 21.5117 280.609 21.1866 279.976C20.8659 279.339 20.3458 279.02 19.6264 279.02C18.9156 279.02 18.3977 279.334 18.0726 279.963C17.7475 280.587 17.585 281.59 17.585 282.973Z" fill="black"/>
        </g>
        <path opacity="0.25" d="M14.9741 339.189C14.9741 340.831 14.7141 342.058 14.194 342.868C13.6782 343.679 12.8872 344.084 11.8211 344.084C10.7982 344.084 10.0202 343.67 9.48714 342.842C8.95405 342.01 8.6875 340.792 8.6875 339.189C8.6875 337.533 8.94538 336.304 9.46114 335.503C9.9769 334.701 10.7635 334.3 11.8211 334.3C12.8526 334.3 13.6349 334.718 14.168 335.555C14.7054 336.391 14.9741 337.602 14.9741 339.189ZM9.77969 339.189C9.77969 340.571 9.94222 341.579 10.2673 342.212C10.5923 342.84 11.1103 343.154 11.8211 343.154C12.5405 343.154 13.0606 342.836 13.3813 342.199C13.7064 341.557 13.8689 340.554 13.8689 339.189C13.8689 337.823 13.7064 336.824 13.3813 336.192C13.0606 335.555 12.5405 335.236 11.8211 335.236C11.1103 335.236 10.5923 335.55 10.2673 336.179C9.94222 336.803 9.77969 337.806 9.77969 339.189Z" fill="black"/>
    </g>
    <g opacity="0.85">
        <path d="M45.5367 375.761H39.2891V374.831L41.792 372.315C42.5548 371.544 43.0576 370.993 43.3003 370.664C43.543 370.334 43.725 370.014 43.8464 369.702C43.9677 369.39 44.0284 369.054 44.0284 368.694C44.0284 368.187 43.8745 367.786 43.5668 367.491C43.2591 367.192 42.8322 367.043 42.2861 367.043C41.8917 367.043 41.5168 367.108 41.1614 367.238C40.8103 367.368 40.4181 367.604 39.9847 367.946L39.4126 367.212C40.2881 366.484 41.2416 366.119 42.2731 366.119C43.1659 366.119 43.8659 366.349 44.373 366.809C44.8801 367.264 45.1336 367.877 45.1336 368.648C45.1336 369.251 44.9646 369.847 44.6265 370.436C44.2885 371.026 43.6557 371.771 42.7282 372.673L40.6478 374.707V374.759H45.5367V375.761Z" fill="black"/>
        <path d="M53.393 370.995C53.393 372.638 53.1329 373.864 52.6128 374.675C52.0971 375.485 51.3061 375.891 50.2399 375.891C49.2171 375.891 48.4391 375.477 47.906 374.649C47.3729 373.817 47.1063 372.599 47.1063 370.995C47.1063 369.34 47.3642 368.111 47.88 367.309C48.3957 366.507 49.1824 366.106 50.2399 366.106C51.2714 366.106 52.0537 366.525 52.5868 367.361C53.1242 368.198 53.393 369.409 53.393 370.995ZM48.1985 370.995C48.1985 372.378 48.3611 373.386 48.6861 374.018C49.0112 374.647 49.5291 374.961 50.2399 374.961C50.9594 374.961 51.4795 374.642 51.8002 374.005C52.1252 373.364 52.2878 372.361 52.2878 370.995C52.2878 369.63 52.1252 368.631 51.8002 367.998C51.4795 367.361 50.9594 367.043 50.2399 367.043C49.5291 367.043 49.0112 367.357 48.6861 367.985C48.3611 368.609 48.1985 369.613 48.1985 370.995Z" fill="black"/>
        <path d="M58.8958 375.761H57.8426V368.986C57.8426 368.423 57.86 367.89 57.8946 367.387C57.8036 367.478 57.7018 367.574 57.5891 367.673C57.4764 367.773 56.9606 368.195 56.0418 368.941L55.4697 368.2L57.9857 366.256H58.8958V375.761Z" fill="black"/>
        <path d="M63.9046 375.761L67.8443 367.251H62.6629V366.256H68.9885V367.121L65.1008 375.761H63.9046Z" fill="black"/>
        <path d="M78.9346 369.559H75.723V375.761H74.6438V368.635H78.9346V369.559Z" fill="black"/>
        <path d="M86.6868 372.192C86.6868 373.353 86.3943 374.261 85.8092 374.916C85.2241 375.566 84.4158 375.891 83.3842 375.891C82.7471 375.891 82.1815 375.741 81.6874 375.442C81.1933 375.143 80.8119 374.714 80.5432 374.155C80.2745 373.596 80.1402 372.941 80.1402 372.192C80.1402 371.03 80.4305 370.126 81.0113 369.481C81.5921 368.83 82.3982 368.505 83.4297 368.505C84.4266 368.505 85.2176 368.837 85.8027 369.5C86.3921 370.163 86.6868 371.06 86.6868 372.192ZM81.2584 372.192C81.2584 373.102 81.4404 373.795 81.8045 374.272C82.1685 374.749 82.7038 374.987 83.4102 374.987C84.1167 374.987 84.652 374.751 85.016 374.278C85.3844 373.802 85.5686 373.106 85.5686 372.192C85.5686 371.286 85.3844 370.599 85.016 370.131C84.652 369.658 84.1124 369.422 83.3972 369.422C82.6908 369.422 82.1577 369.654 81.798 370.118C81.4382 370.581 81.2584 371.273 81.2584 372.192Z" fill="black"/>
        <path d="M94.9592 378.225H93.9125V375.761H88.9326V378.225H87.8924V374.831H88.4515C89.0323 374.042 89.4874 373.117 89.8168 372.055C90.1462 370.993 90.3174 369.853 90.3304 368.635H93.9385V374.831H94.9592V378.225ZM92.8983 374.831V369.487H91.299C91.2427 370.449 91.0563 371.424 90.7399 372.413C90.4279 373.396 90.0378 374.203 89.5697 374.831H92.8983Z" fill="black"/>
    </g>
    <g opacity="0.85">
        <path d="M461.98 375.761H455.732V374.831L458.235 372.315C458.998 371.544 459.501 370.993 459.744 370.664C459.986 370.334 460.168 370.014 460.29 369.702C460.411 369.39 460.472 369.054 460.472 368.694C460.472 368.187 460.318 367.786 460.01 367.491C459.702 367.192 459.276 367.043 458.729 367.043C458.335 367.043 457.96 367.108 457.605 367.238C457.254 367.368 456.861 367.604 456.428 367.946L455.856 367.212C456.731 366.484 457.685 366.119 458.716 366.119C459.609 366.119 460.309 366.349 460.816 366.809C461.323 367.264 461.577 367.877 461.577 368.648C461.577 369.251 461.408 369.847 461.07 370.436C460.732 371.026 460.099 371.771 459.172 372.673L457.091 374.707V374.759H461.98V375.761Z" fill="black"/>
        <path d="M469.836 370.995C469.836 372.638 469.576 373.864 469.056 374.675C468.54 375.485 467.749 375.891 466.683 375.891C465.66 375.891 464.882 375.477 464.349 374.649C463.816 373.817 463.55 372.599 463.55 370.995C463.55 369.34 463.808 368.111 464.323 367.309C464.839 366.507 465.626 366.106 466.683 366.106C467.715 366.106 468.497 366.525 469.03 367.361C469.568 368.198 469.836 369.409 469.836 370.995ZM464.642 370.995C464.642 372.378 464.804 373.386 465.129 374.018C465.455 374.647 465.972 374.961 466.683 374.961C467.403 374.961 467.923 374.642 468.244 374.005C468.569 373.364 468.731 372.361 468.731 370.995C468.731 369.63 468.569 368.631 468.244 367.998C467.923 367.361 467.403 367.043 466.683 367.043C465.972 367.043 465.455 367.357 465.129 367.985C464.804 368.609 464.642 369.613 464.642 370.995Z" fill="black"/>
        <path d="M477.589 375.761H471.341V374.831L473.844 372.315C474.607 371.544 475.109 370.993 475.352 370.664C475.595 370.334 475.777 370.014 475.898 369.702C476.02 369.39 476.08 369.054 476.08 368.694C476.08 368.187 475.926 367.786 475.619 367.491C475.311 367.192 474.884 367.043 474.338 367.043C473.944 367.043 473.569 367.108 473.213 367.238C472.862 367.368 472.47 367.604 472.037 367.946L471.464 367.212C472.34 366.484 473.293 366.119 474.325 366.119C475.218 366.119 475.918 366.349 476.425 366.809C476.932 367.264 477.186 367.877 477.186 368.648C477.186 369.251 477.016 369.847 476.678 370.436C476.34 371.026 475.708 371.771 474.78 372.673L472.7 374.707V374.759H477.589V375.761Z" fill="black"/>
        <path d="M485.445 370.995C485.445 372.638 485.185 373.864 484.665 374.675C484.149 375.485 483.358 375.891 482.292 375.891C481.269 375.891 480.491 375.477 479.958 374.649C479.425 373.817 479.158 372.599 479.158 370.995C479.158 369.34 479.416 368.111 479.932 367.309C480.448 366.507 481.234 366.106 482.292 366.106C483.323 366.106 484.106 366.525 484.639 367.361C485.176 368.198 485.445 369.409 485.445 370.995ZM480.25 370.995C480.25 372.378 480.413 373.386 480.738 374.018C481.063 374.647 481.581 374.961 482.292 374.961C483.011 374.961 483.531 374.642 483.852 374.005C484.177 373.364 484.34 372.361 484.34 370.995C484.34 369.63 484.177 368.631 483.852 367.998C483.531 367.361 483.011 367.043 482.292 367.043C481.581 367.043 481.063 367.357 480.738 367.985C480.413 368.609 480.25 369.613 480.25 370.995Z" fill="black"/>
        <path d="M495.378 369.559H492.166V375.761H491.087V368.635H495.378V369.559Z" fill="black"/>
        <path d="M503.13 372.192C503.13 373.353 502.838 374.261 502.253 374.916C501.667 375.566 500.859 375.891 499.828 375.891C499.19 375.891 498.625 375.741 498.131 375.442C497.637 375.143 497.255 374.714 496.987 374.155C496.718 373.596 496.584 372.941 496.584 372.192C496.584 371.03 496.874 370.126 497.455 369.481C498.035 368.83 498.842 368.505 499.873 368.505C500.87 368.505 501.661 368.837 502.246 369.5C502.835 370.163 503.13 371.06 503.13 372.192ZM497.702 372.192C497.702 373.102 497.884 373.795 498.248 374.272C498.612 374.749 499.147 374.987 499.854 374.987C500.56 374.987 501.095 374.751 501.459 374.278C501.828 373.802 502.012 373.106 502.012 372.192C502.012 371.286 501.828 370.599 501.459 370.131C501.095 369.658 500.556 369.422 499.841 369.422C499.134 369.422 498.601 369.654 498.241 370.118C497.882 370.581 497.702 371.273 497.702 372.192Z" fill="black"/>
        <path d="M511.403 378.225H510.356V375.761H505.376V378.225H504.336V374.831H504.895C505.476 374.042 505.931 373.117 506.26 372.055C506.59 370.993 506.761 369.853 506.774 368.635H510.382V374.831H511.403V378.225ZM509.342 374.831V369.487H507.742C507.686 370.449 507.5 371.424 507.183 372.413C506.871 373.396 506.481 374.203 506.013 374.831H509.342Z" fill="black"/>
    </g>
    <path d="M65.2278 338.311L45.1211 339.516H511.864V99.8574L487.454 105.775C443.073 117.98 412.683 139.777 385.35 170.437L328.182 234.563C319.233 244.601 308.161 253.739 297.724 262.219C272.945 280.711 253.341 293.318 214.509 308.819L184.182 318.805C145.849 330.354 105.191 335.917 65.2278 338.311Z" fill="url(#paint6_linear)" fill-opacity="0.3"/>
    <path d="M65.2278 338.311L45.1211 339.516H511.864V99.8574L487.454 105.775C443.073 117.98 412.683 139.777 385.35 170.437L328.182 234.563C319.233 244.601 308.161 253.739 297.724 262.219C272.945 280.711 253.341 293.318 214.509 308.819L184.182 318.805C145.849 330.354 105.191 335.917 65.2278 338.311Z" fill="url(#paint7_linear)"/>
    <path d="M38.4629 339.516L65.2267 338.311C105.19 335.917 147.327 329.984 185.661 318.435C218.174 308.313 272.204 289.957 326.097 236.9C340.74 222.485 358.767 201.898 371.066 187.467C380.677 176.19 390.308 164.896 401.034 154.674C435.5 121.829 465.107 106.766 514.082 100.967" stroke="url(#paint8_linear)" stroke-width="2.95875"/>
    <g filter="url(#filter0_dd)">
        <circle cx="511.862" cy="99.8576" r="3.69844" fill="white"/>
        <circle cx="511.862" cy="99.8576" r="5.9175" stroke="url(#paint9_linear)" stroke-width="4.43812"/>
    </g>
    <g filter="url(#filter1_d)">
        <circle cx="511.862" cy="99.8576" r="3.69844" fill="white"/>
    </g>
    <path d="M188.465 20.7114H187.507V14.7484C185.873 15.3932 184.43 15.7156 183.178 15.7156C181.901 15.7156 180.925 15.4339 180.249 14.8705C179.572 14.3008 179.234 13.4337 179.234 12.2693V6.98242H180.202V12.3069C180.202 13.9721 181.219 14.8048 183.254 14.8048C183.855 14.8048 184.456 14.7515 185.057 14.6451C185.658 14.5324 186.474 14.2914 187.507 13.922V6.98242H188.465V20.7114Z" fill="black"/>
    <path d="M193.371 10.5039V17.8849L193.314 19.8099L199.371 10.5039H200.611V20.7114H199.719V13.3774L199.756 11.4054L193.699 20.7114H192.488V10.5039H193.371Z" fill="black"/>
    <path d="M208.484 20.8992C207.025 20.8992 205.883 20.4391 205.056 19.5188C204.23 18.5985 203.817 17.3152 203.817 15.6687C203.817 13.9784 204.246 12.6637 205.103 11.7247C205.961 10.7793 207.135 10.3067 208.625 10.3067C209.507 10.3067 210.353 10.4601 211.16 10.7668L210.907 11.5932C210.024 11.2989 209.257 11.1518 208.606 11.1518C207.354 11.1518 206.405 11.54 205.761 12.3163C205.116 13.0863 204.793 14.1975 204.793 15.6499C204.793 17.0272 205.116 18.1071 205.761 18.8897C206.405 19.6659 207.307 20.0541 208.465 20.0541C209.392 20.0541 210.252 19.8882 211.047 19.5564V20.4203C210.396 20.7396 209.542 20.8992 208.484 20.8992Z" fill="black"/>
    <path d="M220.986 20.7114H220.066V11.3678H216.451C216.263 13.8407 216.031 15.7282 215.756 17.0303C215.487 18.3262 215.136 19.2809 214.704 19.8944C214.278 20.5017 213.724 20.8053 213.042 20.8053C212.798 20.8053 212.585 20.7803 212.403 20.7302V19.885C212.522 19.9226 212.691 19.9414 212.91 19.9414C213.618 19.9414 214.187 19.1964 214.619 17.7064C215.058 16.2102 215.389 13.8094 215.615 10.5039H220.986V20.7114Z" fill="black"/>
    <path d="M233.216 15.5936C233.216 17.2588 232.813 18.561 232.005 19.5C231.197 20.4328 230.083 20.8992 228.662 20.8992C227.767 20.8992 226.978 20.6832 226.296 20.2513C225.613 19.8193 225.09 19.1995 224.727 18.392C224.364 17.5844 224.183 16.6516 224.183 15.5936C224.183 13.9283 224.586 12.6324 225.394 11.7059C226.202 10.7731 227.31 10.3067 228.718 10.3067C230.121 10.3067 231.219 10.7793 232.014 11.7247C232.816 12.6637 233.216 13.9533 233.216 15.5936ZM225.159 15.5936C225.159 16.9959 225.466 18.0915 226.08 18.8803C226.699 19.6628 227.573 20.0541 228.7 20.0541C229.826 20.0541 230.697 19.6628 231.31 18.8803C231.93 18.0915 232.24 16.9959 232.24 15.5936C232.24 14.185 231.927 13.0925 231.301 12.3163C230.681 11.54 229.808 11.1518 228.681 11.1518C227.554 11.1518 226.684 11.54 226.07 12.3163C225.463 13.0863 225.159 14.1787 225.159 15.5936Z" fill="black"/>
    <path d="M242.708 20.7114H241.778V10.5039H249.92V20.7114H248.99V11.3866H242.708V20.7114Z" fill="black"/>
    <path d="M258.084 20.8992C256.513 20.8992 255.367 20.3108 254.647 19.1338H254.581L254.609 19.9226C254.635 20.3859 254.647 20.893 254.647 21.4439V25.3316H253.717V10.5039H254.506L254.685 11.9594H254.741C255.442 10.8576 256.563 10.3067 258.103 10.3067C259.48 10.3067 260.529 10.7606 261.249 11.6683C261.975 12.5698 262.338 13.8845 262.338 15.6123C262.338 17.2901 261.956 18.5923 261.192 19.5188C260.435 20.4391 259.399 20.8992 258.084 20.8992ZM258.065 20.0729C259.111 20.0729 259.918 19.6847 260.488 18.9084C261.064 18.1321 261.352 17.046 261.352 15.6499C261.352 12.6512 260.269 11.1518 258.103 11.1518C256.913 11.1518 256.04 11.4805 255.483 12.1378C254.926 12.7889 254.647 13.8532 254.647 15.3306V15.6311C254.647 17.2275 254.913 18.3669 255.445 19.0493C255.984 19.7317 256.857 20.0729 258.065 20.0729Z" fill="black"/>
    <path d="M273.986 15.5936C273.986 17.2588 273.582 18.561 272.774 19.5C271.967 20.4328 270.853 20.8992 269.431 20.8992C268.536 20.8992 267.747 20.6832 267.065 20.2513C266.383 19.8193 265.86 19.1995 265.497 18.392C265.134 17.5844 264.952 16.6516 264.952 15.5936C264.952 13.9283 265.356 12.6324 266.163 11.7059C266.971 10.7731 268.079 10.3067 269.488 10.3067C270.89 10.3067 271.989 10.7793 272.784 11.7247C273.585 12.6637 273.986 13.9533 273.986 15.5936ZM265.929 15.5936C265.929 16.9959 266.235 18.0915 266.849 18.8803C267.469 19.6628 268.342 20.0541 269.469 20.0541C270.596 20.0541 271.466 19.6628 272.08 18.8803C272.699 18.0915 273.009 16.9959 273.009 15.5936C273.009 14.185 272.696 13.0925 272.07 12.3163C271.45 11.54 270.577 11.1518 269.45 11.1518C268.323 11.1518 267.453 11.54 266.84 12.3163C266.232 13.0863 265.929 14.1787 265.929 15.5936Z" fill="black"/>
    <path d="M281.305 20.8992C279.821 20.8992 278.663 20.4422 277.83 19.5282C277.004 18.6142 276.591 17.3339 276.591 15.6875C276.591 14.0598 276.991 12.7576 277.793 11.781C278.594 10.7981 279.674 10.3067 281.032 10.3067C282.234 10.3067 283.183 10.7261 283.878 11.565C284.573 12.4039 284.92 13.5433 284.92 14.9832V15.7344H277.567C277.58 17.1367 277.905 18.2073 278.544 18.946C279.189 19.6847 280.109 20.0541 281.305 20.0541C281.887 20.0541 282.397 20.0134 282.835 19.932C283.28 19.8506 283.84 19.6753 284.516 19.4061V20.2513C283.94 20.5017 283.408 20.6707 282.92 20.7584C282.432 20.8523 281.893 20.8992 281.305 20.8992ZM281.032 11.133C280.049 11.133 279.261 11.4586 278.666 12.1097C278.071 12.7545 277.724 13.6873 277.624 14.9081H283.934C283.934 13.7248 283.677 12.8014 283.164 12.1378C282.651 11.468 281.94 11.133 281.032 11.133Z" fill="black"/>
    <path d="M293.647 10.5039H294.803L290.229 15.4433L295.131 20.7114H293.882L289.056 15.5372V20.7114H288.107V10.5039H289.056V15.4621L293.647 10.5039Z" fill="black"/>
    <path d="M303.784 11.3115H300.384V20.7114H299.464V11.3115H295.98V10.5039H303.784V11.3115Z" fill="black"/>
    <path d="M314.699 15.5936C314.699 17.2588 314.295 18.561 313.488 19.5C312.68 20.4328 311.566 20.8992 310.145 20.8992C309.249 20.8992 308.46 20.6832 307.778 20.2513C307.096 19.8193 306.573 19.1995 306.21 18.392C305.847 17.5844 305.665 16.6516 305.665 15.5936C305.665 13.9283 306.069 12.6324 306.877 11.7059C307.684 10.7731 308.792 10.3067 310.201 10.3067C311.603 10.3067 312.702 10.7793 313.497 11.7247C314.298 12.6637 314.699 13.9533 314.699 15.5936ZM306.642 15.5936C306.642 16.9959 306.949 18.0915 307.562 18.8803C308.182 19.6628 309.055 20.0541 310.182 20.0541C311.309 20.0541 312.179 19.6628 312.793 18.8803C313.412 18.0915 313.722 16.9959 313.722 15.5936C313.722 14.185 313.409 13.0925 312.783 12.3163C312.164 11.54 311.29 11.1518 310.163 11.1518C309.036 11.1518 308.166 11.54 307.553 12.3163C306.945 13.0863 306.642 14.1787 306.642 15.5936Z" fill="black"/>
    <path d="M325.727 12.9642C325.727 13.609 325.567 14.1161 325.248 14.4855C324.929 14.8486 324.409 15.1021 323.689 15.2461V15.3118C324.509 15.4058 325.101 15.6436 325.464 16.0255C325.834 16.4012 326.018 16.9427 326.018 17.6501C326.018 18.633 325.693 19.3905 325.042 19.9226C324.397 20.4485 323.451 20.7114 322.206 20.7114H317.895V10.5039H322.224C323.389 10.5039 324.262 10.7136 324.844 11.133C325.433 11.5525 325.727 12.1629 325.727 12.9642ZM325.032 17.6313C325.032 16.3792 324.071 15.7532 322.149 15.7532H318.825V19.8287H322.281C324.115 19.8287 325.032 19.0962 325.032 17.6313ZM324.741 13.0393C324.741 12.4446 324.528 12.022 324.103 11.7716C323.677 11.5149 323.038 11.3866 322.187 11.3866H318.825V14.8799H322.074C323.026 14.8799 323.708 14.7328 324.121 14.4385C324.534 14.1443 324.741 13.6779 324.741 13.0393Z" fill="black"/>
    <defs>
        <filter id="filter0_dd" x="494.85" y="85.8032" width="34.0256" height="34.0256" filterUnits="userSpaceOnUse" color-interpolation-filters="sRGB">
            <feFlood flood-opacity="0" result="BackgroundImageFix"/>
            <feColorMatrix in="SourceAlpha" type="matrix" values="0 0 0 0 0 0 0 0 0 0 0 0 0 0 0 0 0 0 127 0"/>
            <feOffset/>
            <feGaussianBlur stdDeviation="0.739687"/>
            <feColorMatrix type="matrix" values="0 0 0 0 0 0 0 0 0 0 0 0 0 0 0 0 0 0 0.24 0"/>
            <feBlend mode="normal" in2="BackgroundImageFix" result="effect1_dropShadow"/>
            <feColorMatrix in="SourceAlpha" type="matrix" values="0 0 0 0 0 0 0 0 0 0 0 0 0 0 0 0 0 0 127 0"/>
            <feOffset dy="2.95875"/>
            <feGaussianBlur stdDeviation="4.43812"/>
            <feColorMatrix type="matrix" values="0 0 0 0 0 0 0 0 0 0 0 0 0 0 0 0 0 0 0.16 0"/>
            <feBlend mode="normal" in2="effect1_dropShadow" result="effect2_dropShadow"/>
            <feBlend mode="normal" in="SourceGraphic" in2="effect2_dropShadow" result="shape"/>
        </filter>
        <filter id="filter1_d" x="500.767" y="88.7623" width="22.1906" height="22.1906" filterUnits="userSpaceOnUse" color-interpolation-filters="sRGB">
            <feFlood flood-opacity="0" result="BackgroundImageFix"/>
            <feColorMatrix in="SourceAlpha" type="matrix" values="0 0 0 0 0 0 0 0 0 0 0 0 0 0 0 0 0 0 127 0"/>
            <feOffset/>
            <feGaussianBlur stdDeviation="3.69844"/>
            <feColorMatrix type="matrix" values="0 0 0 0 0 0 0 0 0 0 0 0 0 0 0 0 0 0 0.64 0"/>
            <feBlend mode="normal" in2="BackgroundImageFix" result="effect1_dropShadow"/>
            <feBlend mode="normal" in="SourceGraphic" in2="effect1_dropShadow" result="shape"/>
        </filter>
        <linearGradient id="paint0_linear" x1="38.4629" y1="59.4355" x2="507.678" y2="14.6228" gradientUnits="userSpaceOnUse">
            <stop stop-color="#84A6E4"/>
            <stop offset="1" stop-color="#9DE4B5"/>
        </linearGradient>
        <linearGradient id="paint1_linear" x1="38.4629" y1="115.651" x2="507.709" y2="71.0029" gradientUnits="userSpaceOnUse">
            <stop stop-color="#84A6E4"/>
            <stop offset="1" stop-color="#9DE4B5"/>
        </linearGradient>
        <linearGradient id="paint2_linear" x1="38.4629" y1="171.868" x2="507.647" y2="126.89" gradientUnits="userSpaceOnUse">
            <stop stop-color="#84A6E4"/>
            <stop offset="1" stop-color="#9DE4B5"/>
        </linearGradient>
        <linearGradient id="paint3_linear" x1="38.4629" y1="228.084" x2="507.647" y2="183.106" gradientUnits="userSpaceOnUse">
            <stop stop-color="#84A6E4"/>
            <stop offset="1" stop-color="#9DE4B5"/>
        </linearGradient>
        <linearGradient id="paint4_linear" x1="38.4629" y1="284.3" x2="507.709" y2="239.651" gradientUnits="userSpaceOnUse">
            <stop stop-color="#84A6E4"/>
            <stop offset="1" stop-color="#9DE4B5"/>
        </linearGradient>
        <linearGradient id="paint5_linear" x1="38.4629" y1="340.517" x2="507.709" y2="295.868" gradientUnits="userSpaceOnUse">
            <stop stop-color="#84A6E4"/>
            <stop offset="1" stop-color="#9DE4B5"/>
        </linearGradient>
        <linearGradient id="paint6_linear" x1="45.4722" y1="339.807" x2="504.124" y2="339.631" gradientUnits="userSpaceOnUse">
            <stop stop-color="#84A6E4"/>
            <stop offset="1" stop-color="#9DE4B5"/>
        </linearGradient>
        <linearGradient id="paint7_linear" x1="274.424" y1="168.402" x2="274.424" y2="339.516" gradientUnits="userSpaceOnUse">
            <stop stop-color="white" stop-opacity="0"/>
            <stop offset="1" stop-color="white" stop-opacity="0.85"/>
        </linearGradient>
        <linearGradient id="paint8_linear" x1="45.1201" y1="339.516" x2="528.403" y2="175.55" gradientUnits="userSpaceOnUse">
            <stop stop-color="#F8F8FA" stop-opacity="0.84"/>
            <stop offset="0.588542" stop-color="#326BD2"/>
            <stop offset="1" stop-color="#5CD384"/>
        </linearGradient>
        <linearGradient id="paint9_linear" x1="508.164" y1="103.556" x2="516.598" y2="102.079" gradientUnits="userSpaceOnUse">
            <stop stop-color="#326BD2"/>
            <stop offset="1" stop-color="#5CD384"/>
        </linearGradient>
        <clipPath id="clip0">
            <rect width="23.67" height="297.354" fill="white" transform="translate(0 49.5586)"/>
        </clipPath>
    </defs>
</svg>