<svg width="80" height="80" viewBox="0 0 80 80" fill="none" xmlns="http://www.w3.org/2000/svg">
<path d="M39.7204 10.1656C40.5894 10.1656 41.294 9.46109 41.294 8.59203V1.57359C41.294 0.704531 40.5894 0 39.7204 0C38.8513 0 38.1468 0.704531 38.1468 1.57359V8.59203C38.147 9.46109 38.8515 10.1656 39.7204 10.1656Z" fill="url(#paint0_linear)"/>
<path d="M78.1853 54.0602L75.4055 51.2881C74.4166 50.3005 73.0986 49.7564 71.6942 49.7564C70.7962 49.7564 69.9342 49.9798 69.1703 50.3984L63.9319 45.1663L64.187 44.9114C66.3122 42.782 66.3114 39.3219 64.1869 37.1997C63.4277 36.4391 62.4803 35.9319 61.4477 35.7184C61.5898 35.2277 61.6647 34.7136 61.6647 34.1875C61.6647 32.7258 61.0969 31.3552 60.0691 30.3316C59.3097 29.5709 58.3625 29.0638 57.3298 28.8503C57.472 28.3595 57.5469 27.8456 57.5469 27.3194C57.5469 25.8575 56.9791 24.487 55.9495 23.4619C55.172 22.6853 54.2162 22.1938 53.2127 21.9845C53.7495 20.1334 53.2908 18.0508 51.8345 16.592C50.6223 15.385 48.9775 14.8663 47.3923 15.0344L37.0119 13.0695C35.4287 12.7692 33.4517 12.5706 32.2038 13.7089C32.125 13.7808 32.0447 13.8634 31.9656 13.9555C30.0306 13.2502 27.7738 13.6702 26.2242 15.218C25.1963 16.2447 24.63 17.6147 24.63 19.0756C24.63 19.6019 24.7045 20.1158 24.8466 20.6067C23.815 20.82 22.8689 21.3266 22.1122 22.0847C21.0822 23.1105 20.5142 24.4789 20.5131 25.9381C20.5127 26.4656 20.5875 26.9813 20.7303 27.4734C19.6983 27.6863 18.7516 28.1919 17.9925 28.95C16.9625 29.9789 16.3953 31.3497 16.3953 32.8098C16.3953 33.9283 16.7292 34.9938 17.348 35.8938C16.5667 36.1586 15.8511 36.5994 15.2519 37.198C13.1253 39.3219 13.1245 42.7822 15.2533 44.9147L15.5075 45.1678L10.2684 50.3973C8.32141 49.4806 5.9225 49.8241 4.31578 51.4288L1.53422 54.2025C0.544844 55.1906 0.00015625 56.5088 0 57.9139C0 59.3192 0.544844 60.6375 1.53422 61.6258L5.00562 65.093C5.62047 65.7072 6.61688 65.7066 7.23094 65.0917C7.84516 64.4769 7.84453 63.4805 7.22969 62.8664L3.75828 59.3992C3.36422 59.0056 3.14719 58.4781 3.14719 57.9141C3.14719 57.3502 3.36422 56.8228 3.75734 56.4302L6.53906 53.6563C7.23406 52.962 8.29781 52.8586 9.10562 53.3416C9.1625 53.427 9.22828 53.5083 9.30359 53.5838C9.43844 53.7189 9.59234 53.8225 9.75578 53.8983L25.7078 69.8269C25.7836 69.992 25.8877 70.1475 26.0234 70.2834C26.1556 70.4158 26.3064 70.5181 26.4664 70.5934C26.8038 70.9749 26.9902 71.462 26.9902 71.9817C26.9902 72.5458 26.7731 73.0731 26.3791 73.4667L23.6002 76.2423C22.7791 77.0598 21.4434 77.0597 20.6248 76.2449L17.1534 72.7731C16.5389 72.1586 15.5427 72.1586 14.9281 72.7731C14.3136 73.3877 14.3136 74.3839 14.9281 74.9984L18.402 78.4727C19.4245 79.4909 20.7673 79.9998 22.1108 79.9998C23.4545 79.9998 24.7989 79.4902 25.8227 78.4709L28.6033 75.6936C29.5927 74.7053 30.1375 73.3872 30.1375 71.9817C30.1375 70.9788 29.8586 70.0209 29.34 69.195L35.2363 63.3059C35.2425 63.2995 35.2488 63.2931 35.2552 63.2867C35.9303 62.5888 37.8105 62.7194 39.6287 62.8456C40.9206 62.9355 42.3609 63.0353 43.7681 62.8731L50.225 69.3223C49.8067 70.085 49.5834 70.9459 49.5834 71.8425C49.5834 73.2464 50.1283 74.5638 51.1177 75.552L53.8984 78.3294C54.8872 79.317 56.2052 79.8611 57.6095 79.8611C59.0137 79.8611 60.3317 79.3172 61.3206 78.3294L78.1864 61.4841C79.1758 60.4959 79.7206 59.1778 79.7206 57.7725C79.7205 56.3673 79.1756 55.0492 78.1853 54.0602ZM36.4259 16.1617L43.252 17.4538L39.1663 21.538C38.5342 21.2342 37.668 20.6677 36.7177 19.7586C35.4169 18.5142 34.4864 17.0775 34.4017 16.1814C34.4016 16.1809 34.4016 16.1805 34.4016 16.18C34.4016 16.1802 34.4016 16.1798 34.4016 16.18C34.3955 16.1156 34.3937 16.0638 34.3945 16.0245C34.6003 15.9745 35.1469 15.9191 36.4259 16.1617ZM28.4481 17.4447C29.2453 16.6483 30.4838 16.5564 31.3845 17.1664C31.895 19.3067 33.7208 21.2466 34.5422 22.0325C35.1509 22.615 37.1042 24.3614 39.0758 24.8414C39.3425 25.2238 39.4877 25.6795 39.4877 26.1605C39.4877 26.78 39.2494 27.3592 38.8152 27.793C38.3822 28.2267 37.802 28.4655 37.1814 28.4655C36.5606 28.4655 35.9805 28.2267 35.5455 27.7909L28.448 20.7063C28.0153 20.2742 27.777 19.695 27.777 19.0756C27.7772 18.4561 28.0155 17.8769 28.4481 17.4447ZM24.3363 24.3114C24.7692 23.8778 25.3487 23.6389 25.9684 23.6389C26.5889 23.6389 27.1703 23.8783 27.6061 24.3136L33.3205 30.0166C34.2203 30.9178 34.2203 32.3844 33.3236 33.2825C32.8883 33.7161 32.3061 33.9548 31.6844 33.9548C31.0627 33.9548 30.4805 33.7161 30.047 33.2844L25.7117 28.95C25.705 28.9433 25.6977 28.937 25.6908 28.9302L24.3345 27.5745C23.8994 27.1398 23.6598 26.5595 23.6603 25.9405C23.6609 25.3234 23.8997 24.7461 24.3363 24.3114ZM20.2166 31.1767C20.6498 30.7441 21.2306 30.5058 21.8522 30.5058C22.4686 30.5058 23.0444 30.7406 23.4758 31.1658L27.8242 35.5122C28.2578 35.9441 28.4967 36.5227 28.4967 37.1414C28.4967 37.76 28.2578 38.3386 27.8225 38.7722C27.3894 39.2047 26.8092 39.443 26.1888 39.443C25.5673 39.443 24.9853 39.2041 24.5516 38.7722L22.9752 37.1977C22.9748 37.1972 22.9744 37.1969 22.9741 37.1966L20.2167 34.4425C19.782 34.0083 19.5427 33.4283 19.5427 32.8095C19.5427 32.1909 19.782 31.6108 20.2166 31.1767ZM17.4759 39.4245C17.9111 38.9898 18.4927 38.7505 19.1134 38.7505C19.7341 38.7505 20.3155 38.9897 20.7505 39.4241L22.3291 41.0008C22.7628 41.4327 23.0016 42.0112 23.0016 42.63C23.0016 43.2488 22.7627 43.8272 22.3258 44.2625C21.8928 44.6961 21.3127 44.935 20.692 44.935C20.0713 44.935 19.4911 44.6963 19.055 44.2594L18.8573 44.0625C18.8547 44.0598 18.8527 44.057 18.8502 44.0545C18.8472 44.0517 18.8441 44.0492 18.8411 44.0464L17.4775 42.6881C16.5777 41.7864 16.5769 40.3225 17.4759 39.4245ZM49.5437 57.3086C48.9295 56.6936 47.9331 56.6931 47.3184 57.3072L45.9184 58.7055C44.5881 60.0358 42.1777 59.8683 39.8466 59.7066C37.3152 59.5306 34.6975 59.3491 33.0036 61.0881L27.2075 66.8772L12.7133 52.4042L17.8427 47.2841C18.6905 47.8038 19.6688 48.0823 20.6923 48.0823C22.1547 48.0823 23.5259 47.5155 24.5502 46.4894C25.5812 45.4625 26.1492 44.092 26.1492 42.6302C26.1492 42.6166 26.1483 42.6031 26.1483 42.5895C26.1619 42.5897 26.1755 42.5905 26.1891 42.5905C27.6494 42.5905 29.0195 42.0253 30.0452 41.0009C31.0763 39.9741 31.6442 38.6034 31.6442 37.1417C31.6442 37.1281 31.6433 37.1147 31.6433 37.1011C31.657 37.1011 31.6708 37.102 31.6847 37.102C33.1445 37.102 34.5155 36.5375 35.548 35.5092C36.6198 34.4356 37.15 33.0222 37.1398 31.6117C37.1539 31.6119 37.168 31.6127 37.182 31.6127C38.6444 31.6125 40.0155 31.0458 41.0413 30.0181C42.0692 28.9914 42.6355 27.6214 42.6355 26.1605C42.6355 25.1388 42.3577 24.162 41.8397 23.3159L46.3355 18.822C46.6705 18.4884 47.0836 18.2791 47.5166 18.1927C47.5634 18.1877 47.6097 18.1802 47.6555 18.1711C48.3502 18.0753 49.0797 18.2897 49.6109 18.8188C50.5108 19.7202 50.5108 21.1867 49.6142 22.0848L48.245 23.4484C48.2405 23.453 48.2356 23.457 48.2311 23.4616L46.6541 25.0359C46.0391 25.65 46.0384 26.6464 46.6527 27.2613C47.267 27.8763 48.2633 27.8767 48.878 27.2627L50.2527 25.8898C50.253 25.8895 50.2533 25.8892 50.2536 25.8889L50.4614 25.6819C51.3637 24.7878 52.8256 24.7897 53.727 25.6898C54.1608 26.1217 54.3997 26.7003 54.3997 27.3191C54.3997 27.9377 54.1608 28.5163 53.7236 28.9516L52.3466 30.3314C52.3467 30.3311 52.3464 30.3316 52.3466 30.3314L50.7692 31.9025C50.1534 32.5158 50.1514 33.5122 50.7647 34.1278C51.378 34.7436 52.3742 34.7455 52.99 34.1323L54.5741 32.5547C55.007 32.1209 55.5872 31.8822 56.2078 31.8822C56.8286 31.8822 57.4089 32.1209 57.845 32.5578C58.2787 32.9898 58.5175 33.5684 58.5175 34.1872C58.5175 34.8058 58.2787 35.3844 57.8425 35.8188L55.0972 38.5652C54.4828 39.1798 54.483 40.1761 55.0975 40.7905C55.4048 41.0977 55.8073 41.2511 56.21 41.2511C56.6128 41.2511 57.0156 41.0973 57.3228 40.79L58.6683 39.4441C58.6759 39.4367 58.6842 39.4303 58.6919 39.4227C59.1248 38.9889 59.705 38.7502 60.3256 38.7502C60.9464 38.7502 61.5266 38.9889 61.9611 39.4242C62.86 40.3222 62.8592 41.7863 61.9611 42.6859L60.5931 44.0523C60.5927 44.0528 60.592 44.0533 60.5916 44.0538C60.5911 44.0542 60.5906 44.0548 60.5902 44.0553L58.4189 46.2239C57.8041 46.8381 57.8034 47.8345 58.4175 48.4494C58.7248 48.757 59.128 48.9109 59.5309 48.9109C59.9333 48.9109 60.3358 48.7575 60.643 48.4508L61.705 47.39L66.7952 52.4742L52.3022 66.9495L47.1094 61.763C47.4714 61.5302 47.8178 61.2564 48.143 60.9313L49.5422 59.5338C50.1573 58.9198 50.158 57.9234 49.5437 57.3086ZM75.9622 59.2574L59.0964 76.1027C58.7019 76.4967 58.1737 76.7138 57.6094 76.7138C57.045 76.7138 56.5169 76.4967 56.1222 76.1025L53.3414 73.3252C52.9473 72.9317 52.7303 72.4052 52.7303 71.8425C52.7303 71.28 52.9473 70.7534 53.3414 70.3598L70.2072 53.5145C70.6019 53.1203 71.1298 52.9033 71.6944 52.9033C72.2588 52.9033 72.7869 53.1203 73.1825 53.5155L75.9623 56.2875C76.3564 56.6811 76.5734 57.2083 76.5734 57.7724C76.5733 58.3366 76.3563 58.8639 75.9622 59.2574Z" fill="url(#paint1_linear)"/>
<path d="M18.8251 8.83906C19.1323 9.14562 19.5345 9.29875 19.9367 9.29875C20.3398 9.29875 20.7431 9.14469 21.0504 8.83672C21.6643 8.22156 21.6634 7.22531 21.0482 6.61141L15.3142 0.888749C14.6992 0.274843 13.7028 0.275624 13.0889 0.890937C12.475 1.50609 12.4759 2.50234 13.0911 3.11625L18.8251 8.83906Z" fill="url(#paint2_linear)"/>
<path d="M59.504 9.29876C59.9063 9.29876 60.3088 9.14532 60.616 8.8386L66.3457 3.11579C66.9606 2.50172 66.9612 1.50532 66.347 0.890474C65.7329 0.27563 64.7367 0.275005 64.1217 0.889224L58.392 6.61204C57.7771 7.2261 57.7765 8.22251 58.3907 8.83735C58.6981 9.14501 59.101 9.29876 59.504 9.29876Z" fill="url(#paint3_linear)"/>
<path d="M9.67561 67.6881C9.06639 68.3078 9.07483 69.3042 9.69468 69.9134L9.69921 69.9178C10.005 70.2184 10.402 70.3681 10.7989 70.3681C11.2062 70.3681 11.6136 70.2105 11.9222 69.8966C12.5314 69.2769 12.5206 68.2783 11.9009 67.6691C11.2814 67.0598 10.2851 67.0684 9.67561 67.6881Z" fill="url(#paint4_linear)"/>
<path d="M53.3919 55.0417C53.6313 55.0417 53.8741 54.9872 54.102 54.8724C54.878 54.4809 55.1897 53.5347 54.7985 52.7588C54.407 51.9828 53.4606 51.6709 52.6849 52.0623L52.6761 52.0667C51.9002 52.4581 51.5928 53.4022 51.9841 54.1781C52.2603 54.7263 52.8159 55.0417 53.3919 55.0417Z" fill="url(#paint5_linear)"/>
<defs>
<linearGradient id="paint0_linear" x1="0" y1="79.9998" x2="79.7367" y2="79.9838" gradientUnits="userSpaceOnUse">
<stop stop-color="#84A6E4"/>
<stop offset="1" stop-color="#9DE4B5"/>
</linearGradient>
<linearGradient id="paint1_linear" x1="0" y1="79.9998" x2="79.7367" y2="79.9838" gradientUnits="userSpaceOnUse">
<stop stop-color="#84A6E4"/>
<stop offset="1" stop-color="#9DE4B5"/>
</linearGradient>
<linearGradient id="paint2_linear" x1="0" y1="79.9998" x2="79.7367" y2="79.9838" gradientUnits="userSpaceOnUse">
<stop stop-color="#84A6E4"/>
<stop offset="1" stop-color="#9DE4B5"/>
</linearGradient>
<linearGradient id="paint3_linear" x1="0" y1="79.9998" x2="79.7367" y2="79.9838" gradientUnits="userSpaceOnUse">
<stop stop-color="#84A6E4"/>
<stop offset="1" stop-color="#9DE4B5"/>
</linearGradient>
<linearGradient id="paint4_linear" x1="0" y1="79.9998" x2="79.7367" y2="79.9838" gradientUnits="userSpaceOnUse">
<stop stop-color="#84A6E4"/>
<stop offset="1" stop-color="#9DE4B5"/>
</linearGradient>
<linearGradient id="paint5_linear" x1="0" y1="79.9998" x2="79.7367" y2="79.9838" gradientUnits="userSpaceOnUse">
<stop stop-color="#84A6E4"/>
<stop offset="1" stop-color="#9DE4B5"/>
</linearGradient>
</defs>
</svg>
