<svg width="100%" height="100%" viewBox="0 0 66 56" fill="none" xmlns="http://www.w3.org/2000/svg">
    <path d="M9.69871 28.1378C11.2642 30.6892 13.793 34.5769 16.3218 37.9787C18.6098 41.1375 17.526 42.231 16.5626 43.0814C15.5993 43.9319 14.9972 44.4178 14.1542 45.1468C12.2275 46.7262 11.2642 44.9038 11.2642 44.9038C11.2642 44.9038 2.23268 30.4462 0.908063 28.5023C0.426383 27.7733 0.185547 27.0444 0.185547 26.4369C0.185547 25.8294 0.426383 25.1005 0.908063 24.3715C2.23268 22.4277 10.9029 8.456 10.9029 8.456C10.9029 8.456 12.1071 6.26913 14.1542 7.60555C14.9972 8.21301 15.7197 8.69898 16.5626 9.67093C17.4056 10.7644 18.6098 11.7363 16.3218 14.8951C13.9134 18.2969 11.2642 22.1847 9.69871 24.736C9.45787 25.222 9.21704 25.9509 9.21704 26.4369C9.33746 27.0444 9.45787 27.6518 9.69871 28.1378ZM65.8144 28.0163C65.8144 27.0444 65.4531 26.0724 64.7306 25.1005C62.9243 22.4277 49.7985 1.16644 49.7985 1.16644C49.7985 1.16644 48.7148 -0.898935 46.0655 1.53092C44.9817 2.50286 45.7043 1.8954 44.5001 3.11032C43.2959 4.44674 42.2121 7.24107 45.4634 11.7363C48.9556 16.596 52.5682 22.0632 54.8562 25.708C55.2174 26.3154 55.4583 27.1659 55.4583 27.8948V28.0163V28.1378C55.4583 28.8668 55.3378 29.7172 54.8562 30.3247C52.6886 33.9695 48.9556 39.5581 45.4634 44.2963C42.2121 48.7916 43.1754 51.5859 44.5001 52.9223C45.7043 54.2587 44.9817 53.5298 46.0655 54.5017C48.7148 56.9316 49.7985 54.7447 49.7985 54.7447C49.7985 54.7447 62.9243 33.605 64.851 30.8106C65.5735 29.9602 65.8144 28.9883 65.8144 28.0163C65.8144 28.1378 65.8144 28.1378 65.8144 28.0163Z" fill="url(#paint15_linear)"></path>
    <defs>
        <linearGradient id="paint15_linear" x1="-0.0514907" y1="26.1204" x2="65.8143" y2="26.1204" gradientUnits="userSpaceOnUse">
            <stop stop-color="#84A6E4"></stop>
            <stop offset="1" stop-color="#9DE4B5"></stop>
        </linearGradient>
    </defs>
</svg>