<svg width="78" height="80" viewBox="0 0 78 80" fill="none" xmlns="http://www.w3.org/2000/svg">
<path d="M69.44 55.2109L58.01 66.8909L53.05 61.9809L51.22 63.8709L58.01 70.6609L71.52 57.1609L69.44 55.2109Z" fill="url(#paint0_linear)"/>
<path d="M61 45.3709C56.4913 45.3709 52.1673 47.1619 48.9792 50.35C45.7911 53.5382 44 57.8622 44 62.3709C44 62.8009 44 63.2209 44 63.6409C44 63.7709 44 63.9255 44 64.0409C44 64.1562 44.0657 64.7148 44.09 64.8809C44.1143 65.0469 44.1442 65.1787 44.18 65.3609C44.2158 65.543 44.27 65.8509 44.32 66.0909C44.37 66.3309 44.41 66.4209 44.45 66.5909C44.49 66.7609 44.56 67.0509 44.63 67.2709C44.7 67.4909 44.74 67.6009 44.8 67.7709C44.86 67.9409 44.94 68.2009 45.02 68.4109C45.1 68.6209 45.16 68.7509 45.23 68.9109C45.3063 69.1184 45.3931 69.322 45.49 69.5209C45.56 69.6909 45.65 69.8509 45.73 70.0109C45.81 70.1709 45.92 70.4009 46.03 70.5909L46.31 71.0609L46.55 71.4809L46.72 71.7309H6.45C5.42361 71.7309 4.43926 71.3231 3.7135 70.5974C2.98773 69.8716 2.58 68.8872 2.58 67.8609V7.08086C2.58 6.05447 2.98773 5.07012 3.7135 4.34436C4.43926 3.61859 5.42361 3.21086 6.45 3.21086H63.23C64.2556 3.2135 65.2384 3.62208 65.9636 4.34727C66.6888 5.07247 67.0974 6.05528 67.1 7.08086V42.7609H69.68V7.08086C69.6747 5.37184 68.9935 3.73432 67.785 2.52585C66.5765 1.31738 64.939 0.636134 63.23 0.630859H6.45C4.74017 0.633504 3.10112 1.31391 1.89208 2.52294C0.683046 3.73198 0.00264476 5.37103 0 7.08086V67.8609C0 68.7079 0.166834 69.5466 0.490977 70.3292C0.81512 71.1117 1.29022 71.8228 1.88916 72.4217C2.4881 73.0206 3.19914 73.4957 3.98169 73.8199C4.76424 74.144 5.60297 74.3109 6.45 74.3109H48.9C50.867 76.3044 53.296 77.781 55.9711 78.6097C58.6462 79.4383 61.4846 79.5932 64.2341 79.0606C66.9835 78.528 69.5587 77.3244 71.731 75.5568C73.9032 73.7892 75.6051 71.5123 76.6854 68.9286C77.7657 66.3448 78.1909 63.5341 77.9233 60.7464C77.6557 57.9587 76.7035 55.2803 75.1514 52.9492C73.5993 50.6181 71.4954 48.7066 69.0266 47.3845C66.5577 46.0624 63.8005 45.3707 61 45.3709ZM61 76.8109C58.1403 76.8287 55.3396 75.997 52.9532 74.4212C50.5667 72.8453 48.7019 70.5964 47.5952 67.9594C46.4884 65.3225 46.1896 62.4163 46.7366 59.6093C47.2835 56.8023 48.6517 54.221 50.6675 52.1925C52.6833 50.164 55.2561 48.7798 58.0596 48.2153C60.8631 47.6508 63.7711 47.9314 66.415 49.0216C69.0588 50.1119 71.3193 51.9626 72.91 54.3392C74.5007 56.7157 75.3499 59.5111 75.35 62.3709C75.3794 64.2677 75.029 66.1512 74.3194 67.9105C73.6098 69.6699 72.5554 71.2694 71.2182 72.615C69.8809 73.9606 68.288 75.0251 66.5331 75.7457C64.7783 76.4663 62.897 76.8284 61 76.8109Z" fill="url(#paint1_linear)"/>
<path d="M29.22 5.61086H26.22V8.61086H29.22V5.61086Z" fill="url(#paint2_linear)"/>
<path d="M36.22 5.61086H33.22V8.61086H36.22V5.61086Z" fill="url(#paint3_linear)"/>
<path d="M43.22 5.61086H40.22V8.61086H43.22V5.61086Z" fill="url(#paint4_linear)"/>
<path d="M64.51 10.9509H5.16V13.5309H64.51V10.9509Z" fill="url(#paint5_linear)"/>
<path d="M18.44 18.4909L15.17 21.7709C13.8285 20.883 12.2051 20.525 10.6147 20.7662C9.02418 21.0075 7.57998 21.8309 6.56218 23.0766C5.54437 24.3224 5.0255 25.9017 5.10619 27.5084C5.18688 29.115 5.86139 30.6345 6.9989 31.772C8.1364 32.9095 9.65582 33.584 11.2625 33.6647C12.8691 33.7454 14.4485 33.2265 15.6942 32.2087C16.94 31.1909 17.7633 29.7467 18.0046 28.1562C18.2459 26.5657 17.8879 24.9423 17 23.6009L20.27 20.3709L18.44 18.4909ZM11.61 31.0209C10.5836 31.0209 9.59926 30.6131 8.8735 29.8874C8.14773 29.1616 7.74 28.1772 7.74 27.1509C7.74 26.1245 8.14773 25.1401 8.8735 24.4144C9.59926 23.6886 10.5836 23.2809 11.61 23.2809C11.8759 23.2806 12.141 23.3108 12.4 23.3709L12.65 23.4409C12.8617 23.4992 13.0689 23.5727 13.27 23.6609L10.7 26.2409L12.53 28.0609L15.1 25.4909C15.1881 25.692 15.2617 25.8992 15.32 26.1109C15.32 26.1909 15.32 26.2709 15.39 26.3609C15.4501 26.6199 15.4803 26.885 15.48 27.1509C15.48 28.1772 15.0723 29.1616 14.3465 29.8874C13.6207 30.6131 12.6364 31.0209 11.61 31.0209Z" fill="url(#paint6_linear)"/>
<path d="M43.87 23.2809H21.94V25.8609H43.87V23.2809Z" fill="url(#paint7_linear)"/>
<path d="M30.97 28.4409H21.94V31.0209H30.97V28.4409Z" fill="url(#paint8_linear)"/>
<path d="M51.61 28.4409H33.55V31.0209H51.61V28.4409Z" fill="url(#paint9_linear)"/>
<path d="M59.35 23.2809H46.45V25.8609H59.35V23.2809Z" fill="url(#paint10_linear)"/>
<path d="M18.44 33.9809L15.17 37.2609C13.8302 36.3795 12.2109 36.0272 10.626 36.2721C9.04115 36.517 7.60374 37.3419 6.59255 38.5865C5.58135 39.8312 5.06845 41.4071 5.15331 43.0085C5.23817 44.61 5.91474 46.1228 7.05181 47.2537C8.18889 48.3845 9.70542 49.0528 11.3073 49.1289C12.9092 49.205 14.4822 48.6834 15.7213 47.6655C16.9605 46.6475 17.7774 45.2055 18.0136 43.6194C18.2499 42.0332 17.8887 40.4158 17 39.0809L20.28 35.8009L18.44 33.9809ZM11.61 46.5009C10.5836 46.5009 9.59926 46.0931 8.8735 45.3674C8.14773 44.6416 7.74 43.6572 7.74 42.6309C7.74 41.6045 8.14773 40.6201 8.8735 39.8944C9.59926 39.1686 10.5836 38.7609 11.61 38.7609C11.8756 38.7656 12.1401 38.7957 12.4 38.8509L12.65 38.9309C12.8631 38.9847 13.0707 39.0583 13.27 39.1509L10.7 41.7209L12.53 43.5409L15.1 40.9709C15.1897 41.1748 15.2633 41.3854 15.32 41.6009C15.32 41.6809 15.32 41.7609 15.39 41.8409C15.4495 42.1 15.4797 42.365 15.48 42.6309C15.48 43.6572 15.0723 44.6416 14.3465 45.3674C13.6207 46.0931 12.6364 46.5009 11.61 46.5009Z" fill="url(#paint11_linear)"/>
<path d="M43.87 38.7609H21.94V41.3409H43.87V38.7609Z" fill="url(#paint12_linear)"/>
<path d="M30.97 43.9209H21.94V46.5009H30.97V43.9209Z" fill="url(#paint13_linear)"/>
<path d="M43.87 43.9209H33.55V46.5009H43.87V43.9209Z" fill="url(#paint14_linear)"/>
<path d="M51.61 38.7609H46.45V41.3409H51.61V38.7609Z" fill="url(#paint15_linear)"/>
<path d="M18.44 49.4609L15.17 52.7409C13.8302 51.8595 12.2109 51.5072 10.626 51.7521C9.04115 51.997 7.60374 52.8218 6.59255 54.0665C5.58135 55.3112 5.06845 56.8871 5.15331 58.4885C5.23817 60.09 5.91474 61.6028 7.05181 62.7337C8.18889 63.8645 9.70542 64.5328 11.3073 64.6089C12.9092 64.685 14.4822 64.1634 15.7213 63.1455C16.9605 62.1275 17.7774 60.6855 18.0136 59.0994C18.2499 57.5132 17.8887 55.8958 17 54.5609L20.28 51.2909L18.44 49.4609ZM11.61 61.9909C10.5836 61.9909 9.59926 61.5831 8.8735 60.8574C8.14773 60.1316 7.74 59.1472 7.74 58.1209C7.74 57.0945 8.14773 56.1101 8.8735 55.3844C9.59926 54.6586 10.5836 54.2509 11.61 54.2509C11.8759 54.2506 12.141 54.2808 12.4 54.3409L12.65 54.4109C12.8631 54.4647 13.0707 54.5383 13.27 54.6309L10.7 57.2009L12.53 59.0309L15.1 56.4609C15.1881 56.662 15.2617 56.8692 15.32 57.0809C15.32 57.1609 15.32 57.2409 15.39 57.3309C15.4506 57.5898 15.4808 57.8549 15.48 58.1209C15.48 58.6291 15.3799 59.1323 15.1854 59.6018C14.9909 60.0714 14.7059 60.498 14.3465 60.8574C13.9871 61.2167 13.5605 61.5018 13.091 61.6963C12.6215 61.8908 12.1182 61.9909 11.61 61.9909Z" fill="url(#paint16_linear)"/>
<path d="M38.71 54.2409H21.94V56.8209H38.71V54.2409Z" fill="url(#paint17_linear)"/>
<path d="M30.97 59.4009H21.94V61.9809H30.97V59.4009Z" fill="url(#paint18_linear)"/>
<path d="M38.71 59.4009H33.55V61.9809H38.71V59.4009Z" fill="url(#paint19_linear)"/>
<defs>
<linearGradient id="paint0_linear" x1="0" y1="79.3709" x2="78.0168" y2="79.3552" gradientUnits="userSpaceOnUse">
<stop stop-color="#84A6E4"/>
<stop offset="1" stop-color="#9DE4B5"/>
</linearGradient>
<linearGradient id="paint1_linear" x1="0" y1="79.3709" x2="78.0168" y2="79.3552" gradientUnits="userSpaceOnUse">
<stop stop-color="#84A6E4"/>
<stop offset="1" stop-color="#9DE4B5"/>
</linearGradient>
<linearGradient id="paint2_linear" x1="0" y1="79.3709" x2="78.0168" y2="79.3552" gradientUnits="userSpaceOnUse">
<stop stop-color="#84A6E4"/>
<stop offset="1" stop-color="#9DE4B5"/>
</linearGradient>
<linearGradient id="paint3_linear" x1="0" y1="79.3709" x2="78.0168" y2="79.3552" gradientUnits="userSpaceOnUse">
<stop stop-color="#84A6E4"/>
<stop offset="1" stop-color="#9DE4B5"/>
</linearGradient>
<linearGradient id="paint4_linear" x1="0" y1="79.3709" x2="78.0168" y2="79.3552" gradientUnits="userSpaceOnUse">
<stop stop-color="#84A6E4"/>
<stop offset="1" stop-color="#9DE4B5"/>
</linearGradient>
<linearGradient id="paint5_linear" x1="0" y1="79.3709" x2="78.0168" y2="79.3552" gradientUnits="userSpaceOnUse">
<stop stop-color="#84A6E4"/>
<stop offset="1" stop-color="#9DE4B5"/>
</linearGradient>
<linearGradient id="paint6_linear" x1="0" y1="79.3709" x2="78.0168" y2="79.3552" gradientUnits="userSpaceOnUse">
<stop stop-color="#84A6E4"/>
<stop offset="1" stop-color="#9DE4B5"/>
</linearGradient>
<linearGradient id="paint7_linear" x1="0" y1="79.3709" x2="78.0168" y2="79.3552" gradientUnits="userSpaceOnUse">
<stop stop-color="#84A6E4"/>
<stop offset="1" stop-color="#9DE4B5"/>
</linearGradient>
<linearGradient id="paint8_linear" x1="0" y1="79.3709" x2="78.0168" y2="79.3552" gradientUnits="userSpaceOnUse">
<stop stop-color="#84A6E4"/>
<stop offset="1" stop-color="#9DE4B5"/>
</linearGradient>
<linearGradient id="paint9_linear" x1="0" y1="79.3709" x2="78.0168" y2="79.3552" gradientUnits="userSpaceOnUse">
<stop stop-color="#84A6E4"/>
<stop offset="1" stop-color="#9DE4B5"/>
</linearGradient>
<linearGradient id="paint10_linear" x1="0" y1="79.3709" x2="78.0168" y2="79.3552" gradientUnits="userSpaceOnUse">
<stop stop-color="#84A6E4"/>
<stop offset="1" stop-color="#9DE4B5"/>
</linearGradient>
<linearGradient id="paint11_linear" x1="0" y1="79.3709" x2="78.0168" y2="79.3552" gradientUnits="userSpaceOnUse">
<stop stop-color="#84A6E4"/>
<stop offset="1" stop-color="#9DE4B5"/>
</linearGradient>
<linearGradient id="paint12_linear" x1="0" y1="79.3709" x2="78.0168" y2="79.3552" gradientUnits="userSpaceOnUse">
<stop stop-color="#84A6E4"/>
<stop offset="1" stop-color="#9DE4B5"/>
</linearGradient>
<linearGradient id="paint13_linear" x1="0" y1="79.3709" x2="78.0168" y2="79.3552" gradientUnits="userSpaceOnUse">
<stop stop-color="#84A6E4"/>
<stop offset="1" stop-color="#9DE4B5"/>
</linearGradient>
<linearGradient id="paint14_linear" x1="0" y1="79.3709" x2="78.0168" y2="79.3552" gradientUnits="userSpaceOnUse">
<stop stop-color="#84A6E4"/>
<stop offset="1" stop-color="#9DE4B5"/>
</linearGradient>
<linearGradient id="paint15_linear" x1="0" y1="79.3709" x2="78.0168" y2="79.3552" gradientUnits="userSpaceOnUse">
<stop stop-color="#84A6E4"/>
<stop offset="1" stop-color="#9DE4B5"/>
</linearGradient>
<linearGradient id="paint16_linear" x1="0" y1="79.3709" x2="78.0168" y2="79.3552" gradientUnits="userSpaceOnUse">
<stop stop-color="#84A6E4"/>
<stop offset="1" stop-color="#9DE4B5"/>
</linearGradient>
<linearGradient id="paint17_linear" x1="0" y1="79.3709" x2="78.0168" y2="79.3552" gradientUnits="userSpaceOnUse">
<stop stop-color="#84A6E4"/>
<stop offset="1" stop-color="#9DE4B5"/>
</linearGradient>
<linearGradient id="paint18_linear" x1="0" y1="79.3709" x2="78.0168" y2="79.3552" gradientUnits="userSpaceOnUse">
<stop stop-color="#84A6E4"/>
<stop offset="1" stop-color="#9DE4B5"/>
</linearGradient>
<linearGradient id="paint19_linear" x1="0" y1="79.3709" x2="78.0168" y2="79.3552" gradientUnits="userSpaceOnUse">
<stop stop-color="#84A6E4"/>
<stop offset="1" stop-color="#9DE4B5"/>
</linearGradient>
</defs>
</svg>
