<svg width="80" height="80" viewBox="0 0 80 80" fill="none" xmlns="http://www.w3.org/2000/svg">
<path d="M69.2389 53.1276C70.2592 51.7934 70.867 50.1278 70.867 48.3223V45.5547C70.867 41.1833 67.3106 37.627 62.9394 37.627C58.5681 37.627 55.0117 41.1834 55.0117 45.5547V48.3223C55.0117 50.1267 55.6187 51.7912 56.6378 53.125H47.7689C49.9116 51.0755 51.25 48.192 51.25 45V37.8047C51.25 31.6014 46.2033 26.5547 40 26.5547C33.7967 26.5547 28.75 31.6014 28.75 37.8047V45C28.75 48.192 30.0884 51.0755 32.2309 53.125H23.362C24.3811 51.7911 24.9881 50.1266 24.9881 48.3223V45.5547C24.9881 41.1833 21.4317 37.627 17.0605 37.627C12.6892 37.627 9.13281 41.1833 9.13281 45.5547V48.3223C9.13281 50.128 9.74078 51.7934 10.7609 53.1276C4.81781 53.1848 0 58.0351 0 63.9916V69.9087C0 70.7716 0.699688 71.4712 1.5625 71.4712H14.0625V78.4375C14.0625 79.3003 14.7622 80 15.625 80H20.0002C20.863 80 21.5627 79.3003 21.5627 78.4375C21.5627 77.5747 20.863 76.875 20.0002 76.875H17.1875V69.2625C17.1875 62.4334 22.4766 56.8203 29.1728 56.2942L37.665 76.875H34.0617C33.1989 76.875 32.4992 77.5747 32.4992 78.4375C32.4992 79.3003 33.1989 80 34.0617 80H64.375C65.2378 80 65.9375 79.3003 65.9375 78.4375V71.4712H78.4375C79.3003 71.4712 80 70.7716 80 69.9087V63.9916C80 58.0351 75.1822 53.1848 69.2389 53.1276ZM58.1367 48.3223V45.5547C58.1367 42.9066 60.2913 40.752 62.9394 40.752C65.5875 40.752 67.742 42.9066 67.742 45.5547V48.3223C67.742 50.9705 65.5875 53.125 62.9394 53.125C60.2913 53.125 58.1367 50.9705 58.1367 48.3223ZM40 29.6797C44.4802 29.6797 48.125 33.3245 48.125 37.8047V37.8203H48.1183C45.5323 37.8203 43.0211 37.0712 40.8556 35.6544C40.3359 35.3141 39.6642 35.3141 39.1445 35.6544C36.9791 37.0712 34.4677 37.8203 31.8819 37.8203H31.875V37.8047C31.875 33.3245 35.5198 29.6797 40 29.6797ZM31.875 45V40.9453H31.8817C34.742 40.9453 37.5281 40.2039 40 38.7928C42.4719 40.2039 45.258 40.9453 48.1183 40.9453H48.125V45C48.125 49.4802 44.4802 53.125 40 53.125C35.5198 53.125 31.875 49.4802 31.875 45ZM12.2578 45.5547C12.2578 42.9066 14.4123 40.752 17.0605 40.752C19.7086 40.752 21.8631 42.9066 21.8631 45.5547V48.3223C21.8631 50.9705 19.7086 53.125 17.0605 53.125C14.4123 53.125 12.2578 50.9705 12.2578 48.3223V45.5547ZM14.0891 68.3462H3.125V63.9916C3.125 59.723 6.59797 56.25 10.8666 56.25H20.6675C16.8962 59.0201 14.3681 63.3873 14.0891 68.3462ZM38.4375 56.25V60C38.4375 60.8628 39.1372 61.5625 40 61.5625C40.8628 61.5625 41.5625 60.8628 41.5625 60V56.25H47.4648L40 74.3411L32.5352 56.25H38.4375ZM62.8125 76.875H42.335L50.8272 56.2944C57.5234 56.8203 62.8125 62.4334 62.8125 69.2625V76.875ZM76.875 68.3462H65.9109C65.6319 63.3873 63.1038 59.0201 59.3325 56.25H69.1334C73.402 56.25 76.875 59.723 76.875 63.9916V68.3462Z" fill="url(#paint0_linear)" fill-opacity="0.6"/>
<path d="M29.266 12.0383L32.9957 14.7358L31.5691 19.0939C31.1467 20.3844 31.5836 21.7339 32.6822 22.532C33.7807 23.3302 35.1992 23.3287 36.296 22.5281L39.9999 19.8245L43.7038 22.528C44.2531 22.9289 44.883 23.1295 45.5133 23.1295C46.1411 23.1295 46.7692 22.9303 47.3175 22.532C48.4161 21.7341 48.853 20.3844 48.4307 19.0938L47.0041 14.7358L50.7338 12.0383C51.8328 11.2434 52.2732 9.89594 51.8553 8.60547C51.4375 7.31516 50.2913 6.48141 48.9352 6.48141H44.3289L42.9208 2.12531C42.5032 0.834219 41.3569 0 39.9999 0C38.6428 0 37.4966 0.834219 37.0791 2.12547L35.671 6.48156H31.0647C29.7085 6.48156 28.5622 7.31531 28.1446 8.60563C27.7266 9.89594 28.1669 11.2434 29.266 12.0383ZM36.808 9.60641C37.4858 9.60641 38.0863 9.16938 38.2949 8.52453L40.0002 3.25031L41.7049 8.52453C41.9135 9.16938 42.5139 9.60641 43.1917 9.60641L48.7632 9.60688L44.2486 12.8717C43.6982 13.27 43.468 13.9783 43.6792 14.6241L45.4064 19.9019L40.921 16.628C40.6466 16.4277 40.3232 16.3275 39.9997 16.3275C39.6763 16.3275 39.3528 16.4277 39.0785 16.628L34.5925 19.9017L36.3202 14.6241C36.5316 13.9783 36.3014 13.27 35.7508 12.8717L31.2364 9.60656L36.808 9.60641Z" fill="url(#paint1_linear)" fill-opacity="0.6"/>
<path d="M27.0312 76.875C26.6203 76.875 26.2172 77.042 25.9266 77.3328C25.6359 77.6236 25.4688 78.0266 25.4688 78.4375C25.4688 78.8484 25.6358 79.2516 25.9266 79.542C26.2172 79.8327 26.6203 80 27.0312 80C27.4422 80 27.8453 79.8328 28.1358 79.542C28.4266 79.2516 28.5938 78.8484 28.5938 78.4375C28.5938 78.0266 28.4266 77.6234 28.1358 77.3328C27.8453 77.042 27.4422 76.875 27.0312 76.875Z" fill="url(#paint2_linear)" fill-opacity="0.6"/>
<defs>
<linearGradient id="paint0_linear" x1="80" y1="8.84699e-06" x2="-11.2119" y2="15.9721" gradientUnits="userSpaceOnUse">
<stop stop-color="#5CD384"/>
<stop offset="1" stop-color="#326BD2"/>
</linearGradient>
<linearGradient id="paint1_linear" x1="80" y1="8.84699e-06" x2="-11.2119" y2="15.9721" gradientUnits="userSpaceOnUse">
<stop stop-color="#5CD384"/>
<stop offset="1" stop-color="#326BD2"/>
</linearGradient>
<linearGradient id="paint2_linear" x1="80" y1="8.84699e-06" x2="-11.2119" y2="15.9721" gradientUnits="userSpaceOnUse">
<stop stop-color="#5CD384"/>
<stop offset="1" stop-color="#326BD2"/>
</linearGradient>
</defs>
</svg>
